<svg width="305" height="210" xmlns="http://www.w3.org/2000/svg" xmlns:xlink="http://www.w3.org/1999/xlink" overflow="hidden"><g transform="translate(-566 -313)"><path d="M645 396 657 396 657 400 645 400ZM661 396 673 396 673 400 661 400ZM677 396 689 396 689 400 677 400ZM693 396 705 396 705 400 693 400ZM709 396 721 396 721 400 709 400ZM725 396 737 396 737 400 725 400ZM741 396 753 396 753 400 741 400ZM757 396 769 396 769 400 757 400ZM773 396 785 396 785 400 773 400ZM647 404 635 398 647 392ZM785.027 392 797.027 398 785.027 404Z" fill="#FFFFFF"/><path d="M569.5 522.5 569.5 476.5C569.5 451.095 581.141 430.5 595.5 430.5 609.859 430.5 621.5 451.095 621.5 476.5L621.5 522.5Z" stroke="#FFFFFF" stroke-width="1.33333" stroke-miterlimit="8" fill="#FFFFFF" fill-rule="evenodd"/><path d="M567.5 398.5C567.5 383.036 580.484 370.5 596.5 370.5 612.516 370.5 625.5 383.036 625.5 398.5 625.5 413.964 612.516 426.5 596.5 426.5 580.484 426.5 567.5 413.964 567.5 398.5Z" stroke="#FFFFFF" stroke-width="1.33333" stroke-miterlimit="8" fill="#FFFFFF" fill-rule="evenodd"/><text fill="#FFFFFF" font-family="Calibri,Calibri_MSFontService,sans-serif" font-weight="400" font-size="24" transform="translate(690.907 387)">20 ft</text><text fill="#FFFFFF" font-family="Calibri,Calibri_MSFontService,sans-serif" font-weight="400" font-size="24" transform="translate(697.09 425)">6 m</text><path d="M774.5 349.5C774.5 332.932 788.827 319.5 806.5 319.5 824.173 319.5 838.5 332.932 838.5 349.5 838.5 366.069 824.173 379.5 806.5 379.5 788.827 379.5 774.5 366.069 774.5 349.5Z" stroke="#FFFFFF" stroke-width="1.33333" stroke-miterlimit="8" fill="none" fill-rule="evenodd"/><path d="M769.5 349.5C769.5 330.17 786.066 314.5 806.5 314.5 826.935 314.5 843.5 330.17 843.5 349.5 843.5 368.83 826.935 384.5 806.5 384.5 786.066 384.5 769.5 368.83 769.5 349.5Z" stroke="#FFFFFF" stroke-width="1.33333" stroke-miterlimit="8" fill="none" fill-rule="evenodd"/><path d="M804.716 319.507C823.766 319.851 838.888 333.558 838.493 350.123 838.337 356.622 835.759 362.901 831.145 368.015L804 349.5Z" stroke="#FFFFFF" stroke-width="1.33333" stroke-miterlimit="8" fill="#FFFFFF" fill-rule="evenodd"/><text font-family="Calibri,Calibri_MSFontService,sans-serif" font-weight="400" font-size="16" transform="translate(839.653 347)">20</text></g></svg>