<svg width="169" height="168" xmlns="http://www.w3.org/2000/svg" xmlns:xlink="http://www.w3.org/1999/xlink" overflow="hidden"><g transform="translate(-127 -184)"><path d="M128.5 214.001C128.5 198.812 140.812 186.5 156.001 186.5L267.999 186.5C283.188 186.5 295.5 198.812 295.5 214.001L295.5 323.999C295.5 339.188 283.188 351.5 267.999 351.5L156.001 351.5C140.812 351.5 128.5 339.188 128.5 323.999Z" stroke="#404040" stroke-width="1.33333" stroke-miterlimit="8" fill="#404040" fill-rule="evenodd"/><path d="M137.112 210.893 147.159 207.335C148.475 206.869 157.348 228.534 166.976 255.726 176.605 282.918 183.343 305.339 182.027 305.805L171.98 309.362C170.664 309.828 161.791 288.163 152.163 260.971 142.534 233.78 135.796 211.359 137.112 210.893Z" stroke="#FFFFFF" stroke-width="1.33333" stroke-miterlimit="8" fill="#FFFFFF" fill-rule="evenodd"/><path d="M158.705 330.5 193.295 330.5C197.827 330.5 201.5 333.186 201.5 336.5 201.5 339.814 197.827 342.5 193.295 342.5L158.705 342.5C154.173 342.5 150.5 339.814 150.5 336.5 150.5 333.186 154.173 330.5 158.705 330.5Z" stroke="#FFFFFF" stroke-width="1.33333" stroke-miterlimit="8" fill="#FFFFFF" fill-rule="evenodd"/><path d="M163.5 274.37 163.5 328.63C163.5 335.738 160.59 341.5 157 341.5 153.41 341.5 150.5 335.738 150.5 328.63L150.5 274.37C150.5 267.262 153.41 261.5 157 261.5 160.59 261.5 163.5 267.262 163.5 274.37Z" stroke="#FFFFFF" stroke-width="1.33333" stroke-miterlimit="8" fill="#FFFFFF" fill-rule="evenodd"/><path d="M168 217 180 217 180 221 168 221ZM184 217 196 217 196 221 184 221ZM200 217 207.043 217 207.043 221 200 221ZM170 225 158 219 170 213ZM205.043 213 217.043 219 205.043 225Z" fill="#FFFFFF"/><path d="M229.5 342.5 229.5 296.5C229.5 271.095 240.917 250.5 255 250.5 269.083 250.5 280.5 271.095 280.5 296.5L280.5 342.5Z" stroke="#FFFFFF" stroke-width="1.33333" stroke-miterlimit="8" fill="#FFFFFF" fill-rule="evenodd"/><path d="M220.5 219.5C220.5 204.036 233.484 191.5 249.5 191.5 265.516 191.5 278.5 204.036 278.5 219.5 278.5 234.964 265.516 247.5 249.5 247.5 233.484 247.5 220.5 234.964 220.5 219.5Z" stroke="#FFFFFF" stroke-width="1.33333" stroke-miterlimit="8" fill="#FFFFFF" fill-rule="evenodd"/></g></svg>