<svg width="169" height="168" xmlns="http://www.w3.org/2000/svg" xmlns:xlink="http://www.w3.org/1999/xlink" overflow="hidden"><g transform="translate(-408 -184)"><path d="M409.5 214.001C409.5 198.812 421.812 186.5 437.001 186.5L549 186.5C564.188 186.5 576.5 198.812 576.5 214.001L576.5 323.999C576.5 339.188 564.188 351.5 549 351.5L437.001 351.5C421.812 351.5 409.5 339.188 409.5 323.999Z" stroke="#404040" stroke-width="1.33333" stroke-miterlimit="8" fill="#404040" fill-rule="evenodd"/><path d="M475.5 341.5 475.5 295.5C475.5 270.095 486.917 249.5 501 249.5 515.083 249.5 526.5 270.095 526.5 295.5L526.5 341.5Z" stroke="#FFFFFF" stroke-width="1.33333" stroke-miterlimit="8" fill="#FFFFFF" fill-rule="evenodd"/><path d="M444.5 221.5C444.5 206.036 457.484 193.5 473.5 193.5 489.516 193.5 502.5 206.036 502.5 221.5 502.5 236.964 489.516 249.5 473.5 249.5 457.484 249.5 444.5 236.964 444.5 221.5Z" stroke="#FFFFFF" stroke-width="1.33333" stroke-miterlimit="8" fill="#FFFFFF" fill-rule="evenodd"/><path d="M543.5 215.267 535.337 221.361 534.375 218.847 527.38 226.524 526.212 224.01 514.5 233.5 523.475 217.406 524.721 220.475 530.47 210.475 532.247 214.058 538.277 203.5Z" stroke="#FFFFFF" stroke-width="1.33333" stroke-miterlimit="8" fill="#FFFFFF" fill-rule="evenodd"/><path d="M553.139 246.439 543.013 244.612 544.168 242.173 533.708 242.295 534.719 239.705 519.649 237.597 537.608 233.145 536.247 236.175 547.526 233.535 546.162 237.31 558.044 234.494Z" stroke="#FFFFFF" stroke-width="1.33333" stroke-miterlimit="8" fill="#FFFFFF" fill-rule="evenodd"/></g></svg>