<svg width="214" height="150" xmlns="http://www.w3.org/2000/svg" xmlns:xlink="http://www.w3.org/1999/xlink" overflow="hidden"><g transform="translate(-34 -39)"><path d="M163.5 188.5 163.5 142.5C163.5 117.095 174.917 96.5 189 96.5 203.083 96.5 214.5 117.095 214.5 142.5L214.5 188.5Z" stroke="#FFFFFF" stroke-width="1.33333" stroke-miterlimit="8" fill="#FFFFFF" fill-rule="evenodd"/><path d="M132.5 68.5001C132.5 53.0361 145.484 40.5001 161.5 40.5001 177.516 40.5001 190.5 53.0361 190.5 68.5001 190.5 83.964 177.516 96.5 161.5 96.5 145.484 96.5 132.5 83.964 132.5 68.5001Z" stroke="#FFFFFF" stroke-width="1.33333" stroke-miterlimit="8" fill="#FFFFFF" fill-rule="evenodd"/><path d="M231.5 62.2667 223.337 68.3611 222.375 65.8472 215.38 73.5236 214.212 71.0097 202.5 80.5 211.475 64.4056 212.721 67.475 218.47 57.475 220.246 61.0583 226.277 50.5Z" stroke="#FFFFFF" stroke-width="1.33333" stroke-miterlimit="8" fill="#FFFFFF" fill-rule="evenodd"/><path d="M241.14 93.4389 231.014 91.6119 232.168 89.173 221.708 89.2954 222.719 86.705 207.649 84.5974 225.608 80.1448 224.248 83.1748 235.527 80.5353 234.163 84.3098 246.044 81.4942Z" stroke="#FFFFFF" stroke-width="1.33333" stroke-miterlimit="8" fill="#FFFFFF" fill-rule="evenodd"/><path d="M116.5 187.5 116.5 181.5C116.5 178.186 122.992 175.5 131 175.5 139.008 175.5 145.5 178.186 145.5 181.5L145.5 187.5Z" stroke="#FFFFFF" stroke-width="1.33333" stroke-miterlimit="8" fill="#FFFFFF" fill-rule="evenodd"/><path d="M35.95 73.0837 44.9 68.9463C46.0725 68.4043 55.4265 86.1435 65.7927 108.568 76.159 130.992 83.612 149.61 82.4395 150.152L73.4895 154.29C72.317 154.832 62.963 137.093 52.5968 114.668 42.2305 92.2437 34.7775 73.6257 35.95 73.0837Z" stroke="#FFFFFF" stroke-width="1.33333" stroke-miterlimit="8" fill="#FFFFFF" fill-rule="evenodd"/><path d="M55.8658 176.5 91.1343 176.5C95.7546 176.5 99.5001 179.186 99.5001 182.5 99.5001 185.814 95.7546 188.5 91.1343 188.5L55.8658 188.5C51.2455 188.5 47.5001 185.814 47.5001 182.5 47.5001 179.186 51.2455 176.5 55.8658 176.5Z" stroke="#FFFFFF" stroke-width="1.33333" stroke-miterlimit="8" fill="#FFFFFF" fill-rule="evenodd"/><path d="M60.5001 120.37 60.5001 174.63C60.5001 181.738 57.59 187.5 54.0001 187.5 50.4103 187.5 47.5001 181.738 47.5001 174.63L47.5001 120.37C47.5001 113.262 50.4103 107.5 54.0001 107.5 57.59 107.5 60.5001 113.262 60.5001 120.37Z" stroke="#FFFFFF" stroke-width="1.33333" stroke-miterlimit="8" fill="#FFFFFF" fill-rule="evenodd"/></g></svg>