<svg width="241" height="168" xmlns="http://www.w3.org/2000/svg" xmlns:xlink="http://www.w3.org/1999/xlink" overflow="hidden"><g transform="translate(-972 -478)"><path d="M973.326 512.666 983.372 509.108C984.689 508.642 993.561 530.308 1003.19 557.499 1012.82 584.691 1019.56 607.112 1018.24 607.578L1008.19 611.136C1006.88 611.602 998.005 589.936 988.376 562.745 978.748 535.553 972.009 513.132 973.326 512.666Z" stroke="#FFFFFF" stroke-width="1.33333" stroke-miterlimit="8" fill="#FFFFFF" fill-rule="evenodd"/><path d="M994.705 632.5 1029.3 632.5C1033.83 632.5 1037.5 635.186 1037.5 638.5 1037.5 641.814 1033.83 644.5 1029.3 644.5L994.705 644.5C990.174 644.5 986.5 641.814 986.5 638.5 986.5 635.186 990.174 632.5 994.705 632.5Z" stroke="#FFFFFF" stroke-width="1.33333" stroke-miterlimit="8" fill="#FFFFFF" fill-rule="evenodd"/><path d="M999.5 575.37 999.5 629.63C999.5 636.738 996.59 642.5 993 642.5 989.41 642.5 986.5 636.738 986.5 629.63L986.5 575.37C986.5 568.262 989.41 562.5 993 562.5 996.59 562.5 999.5 568.262 999.5 575.37Z" stroke="#FFFFFF" stroke-width="1.33333" stroke-miterlimit="8" fill="#FFFFFF" fill-rule="evenodd"/><path d="M1009.02 518.126 1021.02 518.277 1020.97 522.277 1008.97 522.126ZM1025.02 518.328 1037.02 518.479 1036.97 522.479 1024.97 522.327ZM1041.02 518.529 1053.02 518.68 1052.97 522.68 1040.97 522.529ZM1057.02 518.731 1069.02 518.882 1068.97 522.882 1056.97 522.73ZM1073.02 518.932 1085.02 519.083 1084.97 523.083 1072.97 522.932ZM1089.02 519.134 1101.02 519.285 1100.97 523.285 1088.97 523.134ZM1105.02 519.335 1117.02 519.487 1116.97 523.486 1104.97 523.335ZM1121.02 519.537 1132.14 519.677 1132.09 523.677 1120.97 523.537ZM1010.92 526.151 999 520 1011.07 514.152ZM1130.19 515.652 1142.11 521.803 1130.04 527.651Z" fill="#FFFFFF"/><path d="M1161.5 644.5 1161.5 599C1161.5 573.871 1172.92 553.5 1187 553.5 1201.08 553.5 1212.5 573.871 1212.5 599L1212.5 644.5Z" stroke="#FFFFFF" stroke-width="1.33333" stroke-miterlimit="8" fill="#FFFFFF" fill-rule="evenodd"/><path d="M1152.5 521.5C1152.5 506.036 1165.48 493.5 1181.5 493.5 1197.52 493.5 1210.5 506.036 1210.5 521.5 1210.5 536.964 1197.52 549.5 1181.5 549.5 1165.48 549.5 1152.5 536.964 1152.5 521.5Z" stroke="#FFFFFF" stroke-width="1.33333" stroke-miterlimit="8" fill="#FFFFFF" fill-rule="evenodd"/><path d="M1113.5 644.5 1113.5 638.5C1113.5 635.186 1119.99 632.5 1128 632.5 1136.01 632.5 1142.5 635.186 1142.5 638.5L1142.5 644.5Z" stroke="#FFFFFF" stroke-width="1.33333" stroke-miterlimit="8" fill="#FFFFFF" fill-rule="evenodd"/><text fill="#FFFFFF" font-family="Calibri,Calibri_MSFontService,sans-serif" font-weight="400" font-size="24" transform="translate(1026.26 508)">20</text><text fill="#FFFFFF" font-family="Calibri,Calibri_MSFontService,sans-serif" font-weight="400" font-size="24" transform="translate(1050.6 508)">-</text><text fill="#FFFFFF" font-family="Calibri,Calibri_MSFontService,sans-serif" font-weight="400" font-size="24" transform="translate(1057.93 508)">30 i</text><text fill="#FFFFFF" font-family="Calibri,Calibri_MSFontService,sans-serif" font-weight="400" font-size="24" transform="translate(1093.26 508)">n</text><text fill="#FFFFFF" font-family="Calibri,Calibri_MSFontService,sans-serif" font-weight="400" font-size="24" transform="translate(1026.26 547)">50</text><text fill="#FFFFFF" font-family="Calibri,Calibri_MSFontService,sans-serif" font-weight="400" font-size="24" transform="translate(1050.6 547)">-</text><text fill="#FFFFFF" font-family="Calibri,Calibri_MSFontService,sans-serif" font-weight="400" font-size="24" transform="translate(1057.93 547)">75 cm</text></g></svg>